<svg xmlns="http://www.w3.org/2000/svg" width="221.08" height="35" viewBox="0 0 221.08 35"><rect class="svg__rect" x="0" y="0" width="85.53" height="35" fill="#31C4F3"/><rect class="svg__rect" x="83.53" y="0" width="137.55" height="35" fill="#25A382"/><path class="svg__text" d="M13.78 19.42L13.78 19.42L15.27 19.42Q15.27 20.15 15.75 20.55Q16.23 20.95 17.12 20.95L17.12 20.95Q17.90 20.95 18.29 20.63Q18.68 20.32 18.68 19.80L18.68 19.80Q18.68 19.24 18.28 18.94Q17.89 18.63 16.85 18.32Q15.82 18.01 15.21 17.63L15.21 17.63Q14.05 16.90 14.05 15.72L14.05 15.72Q14.05 14.69 14.89 14.02Q15.73 13.35 17.07 13.35L17.07 13.35Q17.96 13.35 18.66 13.68Q19.36 14.01 19.75 14.61Q20.15 15.22 20.15 15.96L20.15 15.96L18.68 15.96Q18.68 15.29 18.26 14.91Q17.84 14.54 17.06 14.54L17.06 14.54Q16.33 14.54 15.93 14.85Q15.53 15.16 15.53 15.71L15.53 15.71Q15.53 16.18 15.96 16.50Q16.40 16.81 17.39 17.10Q18.39 17.40 18.99 17.78Q19.60 18.16 19.88 18.65Q20.16 19.13 20.16 19.79L20.16 19.79Q20.16 20.86 19.34 21.49Q18.52 22.12 17.12 22.12L17.12 22.12Q16.20 22.12 15.42 21.77Q14.64 21.43 14.21 20.83Q13.78 20.22 13.78 19.42ZM26.13 14.66L23.49 14.66L23.49 13.47L30.26 13.47L30.26 14.66L27.60 14.66L27.60 22L26.13 22L26.13 14.66ZM34.80 22L33.25 22L36.48 13.47L37.81 13.47L41.04 22L39.49 22L38.79 20.01L35.49 20.01L34.80 22ZM37.14 15.28L35.90 18.82L38.38 18.82L37.14 15.28ZM46.67 14.66L44.04 14.66L44.04 13.47L50.80 13.47L50.80 14.66L48.14 14.66L48.14 22L46.67 22L46.67 14.66ZM54.42 19.16L54.42 19.16L54.42 13.47L55.90 13.47L55.90 19.18Q55.90 20.03 56.33 20.48Q56.77 20.93 57.61 20.93L57.61 20.93Q59.32 20.93 59.32 19.13L59.32 19.13L59.32 13.47L60.80 13.47L60.80 19.17Q60.80 20.53 59.93 21.32Q59.06 22.12 57.61 22.12L57.61 22.12Q56.15 22.12 55.29 21.33Q54.42 20.55 54.42 19.16ZM64.94 19.42L64.94 19.42L66.42 19.42Q66.42 20.15 66.90 20.55Q67.38 20.95 68.28 20.95L68.28 20.95Q69.05 20.95 69.44 20.63Q69.83 20.32 69.83 19.80L69.83 19.80Q69.83 19.24 69.43 18.94Q69.04 18.63 68.01 18.32Q66.97 18.01 66.37 17.63L66.37 17.63Q65.20 16.90 65.20 15.72L65.20 15.72Q65.20 14.69 66.04 14.02Q66.88 13.35 68.22 13.35L68.22 13.35Q69.11 13.35 69.81 13.68Q70.51 14.01 70.91 14.61Q71.31 15.22 71.31 15.96L71.31 15.96L69.83 15.96Q69.83 15.29 69.41 14.91Q68.99 14.54 68.21 14.54L68.21 14.54Q67.48 14.54 67.08 14.85Q66.68 15.16 66.68 15.71L66.68 15.71Q66.68 16.18 67.12 16.50Q67.55 16.81 68.55 17.10Q69.54 17.40 70.14 17.78Q70.75 18.16 71.03 18.65Q71.31 19.13 71.31 19.79L71.31 19.79Q71.31 20.86 70.49 21.49Q69.68 22.12 68.28 22.12L68.28 22.12Q67.35 22.12 66.57 21.77Q65.80 21.43 65.37 20.83Q64.94 20.22 64.94 19.42Z" fill="#FFFFFF"/><path class="svg__text" d="M96.64 20.93L96.64 20.93L97.93 19.40Q98.60 20.27 99.38 20.27L99.38 20.27Q99.38 20.27 99.39 20.27L99.39 20.27Q99.90 20.27 100.17 19.96Q100.44 19.65 100.44 19.05L100.44 19.05L100.44 15.44L97.54 15.44L97.54 13.60L102.80 13.60L102.80 18.91Q102.80 20.54 101.97 21.36Q101.15 22.17 99.56 22.17L99.56 22.17Q98.63 22.17 97.88 21.85Q97.12 21.53 96.64 20.93ZM109.30 22L106.88 22L110.59 13.60L112.93 13.60L116.64 22L114.18 22L113.51 20.37L109.96 20.37L109.30 22ZM111.74 15.93L110.66 18.61L112.82 18.61L111.74 15.93ZM123.13 22L120.80 22L120.80 13.60L122.75 13.60L126.46 18.07L126.46 13.60L128.79 13.60L128.79 22L126.84 22L123.13 17.52L123.13 22ZM136.31 22L133.95 22L133.95 13.60L136.31 13.60L136.31 17.09L139.56 13.60L142.17 13.60L138.75 17.32L142.35 22L139.59 22L137.19 18.95L136.31 19.90L136.31 22ZM148.25 15.48L145.67 15.48L145.67 13.60L153.19 13.60L153.19 15.48L150.63 15.48L150.63 22L148.25 22L148.25 15.48ZM158.98 22L156.56 22L160.27 13.60L162.61 13.60L166.33 22L163.86 22L163.20 20.37L159.65 20.37L158.98 22ZM161.42 15.93L160.34 18.61L162.50 18.61L161.42 15.93ZM169.89 21.24L169.89 21.24L170.67 19.49Q171.24 19.86 171.98 20.09Q172.72 20.32 173.44 20.32L173.44 20.32Q174.81 20.32 174.82 19.64L174.82 19.64Q174.82 19.28 174.43 19.11Q174.04 18.93 173.17 18.74L173.17 18.74Q172.22 18.53 171.58 18.30Q170.95 18.06 170.49 17.55Q170.04 17.03 170.04 16.16L170.04 16.16Q170.04 15.39 170.46 14.77Q170.88 14.15 171.71 13.79Q172.55 13.43 173.75 13.43L173.75 13.43Q174.58 13.43 175.39 13.62Q176.19 13.80 176.81 14.17L176.81 14.17L176.08 15.93Q174.87 15.28 173.74 15.28L173.74 15.28Q173.03 15.28 172.71 15.49Q172.39 15.70 172.39 16.04L172.39 16.04Q172.39 16.37 172.77 16.54Q173.16 16.71 174.01 16.89L174.01 16.89Q174.97 17.10 175.60 17.33Q176.23 17.56 176.69 18.07Q177.15 18.58 177.15 19.46L177.15 19.46Q177.15 20.21 176.73 20.83Q176.32 21.44 175.47 21.80Q174.63 22.17 173.43 22.17L173.43 22.17Q172.41 22.17 171.45 21.92Q170.49 21.67 169.89 21.24ZM183.52 15.48L180.94 15.48L180.94 13.60L188.46 13.60L188.46 15.48L185.90 15.48L185.90 22L183.52 22L183.52 15.48ZM195.21 22L192.83 22L192.83 13.60L195.21 13.60L195.21 22ZM199.96 17.80L199.96 17.80Q199.96 16.54 200.56 15.54Q201.15 14.55 202.21 13.99Q203.26 13.43 204.58 13.43L204.58 13.43Q205.73 13.43 206.65 13.84Q207.58 14.25 208.19 15.02L208.19 15.02L206.68 16.39Q205.86 15.40 204.70 15.40L204.70 15.40Q204.01 15.40 203.48 15.70Q202.95 16 202.65 16.54Q202.35 17.09 202.35 17.80L202.35 17.80Q202.35 18.51 202.65 19.05Q202.95 19.60 203.48 19.90Q204.01 20.20 204.70 20.20L204.70 20.20Q205.86 20.20 206.68 19.22L206.68 19.22L208.19 20.58Q207.58 21.35 206.66 21.76Q205.73 22.17 204.58 22.17L204.58 22.17Q203.26 22.17 202.21 21.61Q201.15 21.05 200.56 20.05Q199.96 19.06 199.96 17.80Z" fill="#FFFFFF" x="96.53"/></svg>